<mxfile host="app.diagrams.net" agent="Mozilla/5.0 (Windows NT 10.0; Win64; x64) AppleWebKit/537.36 (KHTML, like Gecko) Chrome/134.0.0.0 Safari/537.36" version="24.8.4">
  <diagram id="R2lEEEUBdFMjLlhIrx00" name="Page-1">
    <mxGraphModel dx="1434" dy="784" grid="1" gridSize="10" guides="1" tooltips="1" connect="1" arrows="1" fold="1" page="1" pageScale="1" pageWidth="850" pageHeight="1100" math="0" shadow="0" extFonts="Permanent Marker^https://fonts.googleapis.com/css?family=Permanent+Marker">
      <root>
        <mxCell id="0" />
        <mxCell id="1" parent="0" />
        <mxCell id="C-vyLk0tnHw3VtMMgP7b-23" value="User" style="shape=table;startSize=30;container=1;collapsible=1;childLayout=tableLayout;fixedRows=1;rowLines=0;fontStyle=1;align=center;resizeLast=1;" parent="1" vertex="1">
          <mxGeometry x="140" y="70" width="250" height="160" as="geometry" />
        </mxCell>
        <mxCell id="C-vyLk0tnHw3VtMMgP7b-24" value="" style="shape=partialRectangle;collapsible=0;dropTarget=0;pointerEvents=0;fillColor=none;points=[[0,0.5],[1,0.5]];portConstraint=eastwest;top=0;left=0;right=0;bottom=1;" parent="C-vyLk0tnHw3VtMMgP7b-23" vertex="1">
          <mxGeometry y="30" width="250" height="30" as="geometry" />
        </mxCell>
        <mxCell id="C-vyLk0tnHw3VtMMgP7b-25" value="PK" style="shape=partialRectangle;overflow=hidden;connectable=0;fillColor=none;top=0;left=0;bottom=0;right=0;fontStyle=1;" parent="C-vyLk0tnHw3VtMMgP7b-24" vertex="1">
          <mxGeometry width="30" height="30" as="geometry">
            <mxRectangle width="30" height="30" as="alternateBounds" />
          </mxGeometry>
        </mxCell>
        <mxCell id="C-vyLk0tnHw3VtMMgP7b-26" value="id" style="shape=partialRectangle;overflow=hidden;connectable=0;fillColor=none;top=0;left=0;bottom=0;right=0;align=left;spacingLeft=6;fontStyle=5;" parent="C-vyLk0tnHw3VtMMgP7b-24" vertex="1">
          <mxGeometry x="30" width="220" height="30" as="geometry">
            <mxRectangle width="220" height="30" as="alternateBounds" />
          </mxGeometry>
        </mxCell>
        <mxCell id="C-vyLk0tnHw3VtMMgP7b-27" value="" style="shape=partialRectangle;collapsible=0;dropTarget=0;pointerEvents=0;fillColor=none;points=[[0,0.5],[1,0.5]];portConstraint=eastwest;top=0;left=0;right=0;bottom=0;" parent="C-vyLk0tnHw3VtMMgP7b-23" vertex="1">
          <mxGeometry y="60" width="250" height="100" as="geometry" />
        </mxCell>
        <mxCell id="C-vyLk0tnHw3VtMMgP7b-28" value="" style="shape=partialRectangle;overflow=hidden;connectable=0;fillColor=none;top=0;left=0;bottom=0;right=0;" parent="C-vyLk0tnHw3VtMMgP7b-27" vertex="1">
          <mxGeometry width="30" height="100" as="geometry">
            <mxRectangle width="30" height="100" as="alternateBounds" />
          </mxGeometry>
        </mxCell>
        <mxCell id="C-vyLk0tnHw3VtMMgP7b-29" value="username string unique&#xa;&#xa;email string unique&#xa;&#xa;disabled bool&#xa;&#xa;hashed_password unique" style="shape=partialRectangle;overflow=hidden;connectable=0;fillColor=none;top=0;left=0;bottom=0;right=0;align=left;spacingLeft=6;" parent="C-vyLk0tnHw3VtMMgP7b-27" vertex="1">
          <mxGeometry x="30" width="220" height="100" as="geometry">
            <mxRectangle width="220" height="100" as="alternateBounds" />
          </mxGeometry>
        </mxCell>
        <mxCell id="P8gpHz6NNQ1WnRpN-rSP-8" value="User/Friends" style="shape=table;startSize=30;container=1;collapsible=1;childLayout=tableLayout;fixedRows=1;rowLines=0;fontStyle=1;align=center;resizeLast=1;" vertex="1" parent="1">
          <mxGeometry x="20" y="390" width="250" height="160" as="geometry" />
        </mxCell>
        <mxCell id="P8gpHz6NNQ1WnRpN-rSP-9" value="" style="shape=partialRectangle;collapsible=0;dropTarget=0;pointerEvents=0;fillColor=none;points=[[0,0.5],[1,0.5]];portConstraint=eastwest;top=0;left=0;right=0;bottom=1;" vertex="1" parent="P8gpHz6NNQ1WnRpN-rSP-8">
          <mxGeometry y="30" width="250" height="30" as="geometry" />
        </mxCell>
        <mxCell id="P8gpHz6NNQ1WnRpN-rSP-10" value="PK" style="shape=partialRectangle;overflow=hidden;connectable=0;fillColor=none;top=0;left=0;bottom=0;right=0;fontStyle=1;" vertex="1" parent="P8gpHz6NNQ1WnRpN-rSP-9">
          <mxGeometry width="30" height="30" as="geometry">
            <mxRectangle width="30" height="30" as="alternateBounds" />
          </mxGeometry>
        </mxCell>
        <mxCell id="P8gpHz6NNQ1WnRpN-rSP-11" value="id" style="shape=partialRectangle;overflow=hidden;connectable=0;fillColor=none;top=0;left=0;bottom=0;right=0;align=left;spacingLeft=6;fontStyle=5;" vertex="1" parent="P8gpHz6NNQ1WnRpN-rSP-9">
          <mxGeometry x="30" width="220" height="30" as="geometry">
            <mxRectangle width="220" height="30" as="alternateBounds" />
          </mxGeometry>
        </mxCell>
        <mxCell id="P8gpHz6NNQ1WnRpN-rSP-12" value="" style="shape=partialRectangle;collapsible=0;dropTarget=0;pointerEvents=0;fillColor=none;points=[[0,0.5],[1,0.5]];portConstraint=eastwest;top=0;left=0;right=0;bottom=0;" vertex="1" parent="P8gpHz6NNQ1WnRpN-rSP-8">
          <mxGeometry y="60" width="250" height="100" as="geometry" />
        </mxCell>
        <mxCell id="P8gpHz6NNQ1WnRpN-rSP-13" value="FK" style="shape=partialRectangle;overflow=hidden;connectable=0;fillColor=none;top=0;left=0;bottom=0;right=0;" vertex="1" parent="P8gpHz6NNQ1WnRpN-rSP-12">
          <mxGeometry width="30" height="100" as="geometry">
            <mxRectangle width="30" height="100" as="alternateBounds" />
          </mxGeometry>
        </mxCell>
        <mxCell id="P8gpHz6NNQ1WnRpN-rSP-14" value="id_user&#xa;id_friend" style="shape=partialRectangle;overflow=hidden;connectable=0;fillColor=none;top=0;left=0;bottom=0;right=0;align=left;spacingLeft=6;fontStyle=5" vertex="1" parent="P8gpHz6NNQ1WnRpN-rSP-12">
          <mxGeometry x="30" width="220" height="100" as="geometry">
            <mxRectangle width="220" height="100" as="alternateBounds" />
          </mxGeometry>
        </mxCell>
        <mxCell id="P8gpHz6NNQ1WnRpN-rSP-15" value="User/Friend_Requests" style="shape=table;startSize=30;container=1;collapsible=1;childLayout=tableLayout;fixedRows=1;rowLines=0;fontStyle=1;align=center;resizeLast=1;" vertex="1" parent="1">
          <mxGeometry x="370" y="390" width="250" height="160" as="geometry" />
        </mxCell>
        <mxCell id="P8gpHz6NNQ1WnRpN-rSP-16" value="" style="shape=partialRectangle;collapsible=0;dropTarget=0;pointerEvents=0;fillColor=none;points=[[0,0.5],[1,0.5]];portConstraint=eastwest;top=0;left=0;right=0;bottom=1;" vertex="1" parent="P8gpHz6NNQ1WnRpN-rSP-15">
          <mxGeometry y="30" width="250" height="30" as="geometry" />
        </mxCell>
        <mxCell id="P8gpHz6NNQ1WnRpN-rSP-17" value="PK" style="shape=partialRectangle;overflow=hidden;connectable=0;fillColor=none;top=0;left=0;bottom=0;right=0;fontStyle=1;" vertex="1" parent="P8gpHz6NNQ1WnRpN-rSP-16">
          <mxGeometry width="30" height="30" as="geometry">
            <mxRectangle width="30" height="30" as="alternateBounds" />
          </mxGeometry>
        </mxCell>
        <mxCell id="P8gpHz6NNQ1WnRpN-rSP-18" value="id" style="shape=partialRectangle;overflow=hidden;connectable=0;fillColor=none;top=0;left=0;bottom=0;right=0;align=left;spacingLeft=6;fontStyle=5;" vertex="1" parent="P8gpHz6NNQ1WnRpN-rSP-16">
          <mxGeometry x="30" width="220" height="30" as="geometry">
            <mxRectangle width="220" height="30" as="alternateBounds" />
          </mxGeometry>
        </mxCell>
        <mxCell id="P8gpHz6NNQ1WnRpN-rSP-19" value="" style="shape=partialRectangle;collapsible=0;dropTarget=0;pointerEvents=0;fillColor=none;points=[[0,0.5],[1,0.5]];portConstraint=eastwest;top=0;left=0;right=0;bottom=0;" vertex="1" parent="P8gpHz6NNQ1WnRpN-rSP-15">
          <mxGeometry y="60" width="250" height="100" as="geometry" />
        </mxCell>
        <mxCell id="P8gpHz6NNQ1WnRpN-rSP-20" value="FK" style="shape=partialRectangle;overflow=hidden;connectable=0;fillColor=none;top=0;left=0;bottom=0;right=0;" vertex="1" parent="P8gpHz6NNQ1WnRpN-rSP-19">
          <mxGeometry width="30" height="100" as="geometry">
            <mxRectangle width="30" height="100" as="alternateBounds" />
          </mxGeometry>
        </mxCell>
        <mxCell id="P8gpHz6NNQ1WnRpN-rSP-21" value="id_user&#xa;id_who_sent_request" style="shape=partialRectangle;overflow=hidden;connectable=0;fillColor=none;top=0;left=0;bottom=0;right=0;align=left;spacingLeft=6;fontStyle=5" vertex="1" parent="P8gpHz6NNQ1WnRpN-rSP-19">
          <mxGeometry x="30" width="220" height="100" as="geometry">
            <mxRectangle width="220" height="100" as="alternateBounds" />
          </mxGeometry>
        </mxCell>
        <mxCell id="P8gpHz6NNQ1WnRpN-rSP-22" value="" style="endArrow=classic;html=1;rounded=0;" edge="1" parent="1">
          <mxGeometry relative="1" as="geometry">
            <mxPoint x="157" y="260" as="sourcePoint" />
            <mxPoint x="160" y="370" as="targetPoint" />
          </mxGeometry>
        </mxCell>
        <mxCell id="P8gpHz6NNQ1WnRpN-rSP-24" value="1" style="edgeLabel;resizable=0;html=1;;align=left;verticalAlign=bottom;" connectable="0" vertex="1" parent="P8gpHz6NNQ1WnRpN-rSP-22">
          <mxGeometry x="-1" relative="1" as="geometry" />
        </mxCell>
        <mxCell id="P8gpHz6NNQ1WnRpN-rSP-25" value="n" style="edgeLabel;resizable=0;html=1;;align=right;verticalAlign=bottom;" connectable="0" vertex="1" parent="P8gpHz6NNQ1WnRpN-rSP-22">
          <mxGeometry x="1" relative="1" as="geometry" />
        </mxCell>
        <mxCell id="P8gpHz6NNQ1WnRpN-rSP-26" value="" style="endArrow=classic;html=1;rounded=0;" edge="1" parent="1">
          <mxGeometry relative="1" as="geometry">
            <mxPoint x="380" y="250" as="sourcePoint" />
            <mxPoint x="383" y="360" as="targetPoint" />
          </mxGeometry>
        </mxCell>
        <mxCell id="P8gpHz6NNQ1WnRpN-rSP-27" value="1" style="edgeLabel;resizable=0;html=1;;align=left;verticalAlign=bottom;" connectable="0" vertex="1" parent="P8gpHz6NNQ1WnRpN-rSP-26">
          <mxGeometry x="-1" relative="1" as="geometry" />
        </mxCell>
        <mxCell id="P8gpHz6NNQ1WnRpN-rSP-28" value="n" style="edgeLabel;resizable=0;html=1;;align=right;verticalAlign=bottom;" connectable="0" vertex="1" parent="P8gpHz6NNQ1WnRpN-rSP-26">
          <mxGeometry x="1" relative="1" as="geometry" />
        </mxCell>
      </root>
    </mxGraphModel>
  </diagram>
</mxfile>
